Coordinates
version=1
nRows=14
nColumns=36
inDegrees=yes

Units are S.I. units (second, meters, Newtons, ...)
If the header above contains a line with 'inDegrees', this indicates whether rotational values are in degrees (yes) or radians (no).

endheader
time	pelvis_tilt	pelvis_list	pelvis_rotation	pelvis_tx	pelvis_ty	pelvis_tz	hip_flexion_r	hip_adduction_r	hip_rotation_r	knee_angle_r	knee_angle_r_beta	ankle_angle_r	subtalar_angle_r	mtp_angle_r	hip_flexion_l	hip_adduction_l	hip_rotation_l	knee_angle_l	knee_angle_l_beta	ankle_angle_l	subtalar_angle_l	mtp_angle_l	lumbar_extension	lumbar_bending	lumbar_rotation	arm_flex_r	arm_add_r	arm_rot_r	elbow_flex_r	pro_sup_r	arm_flex_l	arm_add_l	arm_rot_l	elbow_flex_l	pro_sup_l
      0.00000000	      8.50221484	     -4.08474272	      0.45406531	      1.23244697	      0.95559683	     -0.06720810	    -11.81719242	     -1.36761099	     -2.99593864	      0.19569973	      0.00341560	      7.84748247	     -4.89202779	     -6.19733949	    -15.01908029	    -12.64457015	     -5.86140055	      0.09411413	      0.00164260	     14.19613675	     -1.27990059	     -6.19733949	     -4.80695905	      5.01559052	     -1.41777603	     42.69354682	      5.75733741	     50.22818638	    119.72995854	     74.82014079	     36.37625464	      5.92789132	     58.04741945	    105.65611088	     87.21085394
      0.01666670	      7.71857729	     -3.35027275	     -0.32574616	      1.23450300	      0.95713399	     -0.06714683	    -10.93644369	     -2.41194039	     -4.18321739	      0.24227796	      0.00422855	      8.64909008	     -2.81310401	     -6.73374167	    -14.25975517	    -11.75053771	     -8.23473889	      0.10158762	      0.00177304	     13.03469779	     -1.71556035	     -6.73374167	     -4.44845728	      4.42592903	      0.73800673	     45.10342358	      2.93869512	     59.63984658	    127.07681021	     90.97554881	     37.29449493	      4.83090905	     59.75652349	    109.40958704	     97.57809550
      0.03333330	      7.54732222	     -3.10441052	      0.38417297	      1.23545308	      0.95881889	     -0.06762414	    -11.06730018	     -2.53163801	     -4.58011322	      0.28101557	      0.00490465	      8.81940813	     -2.58812090	     -6.84761755	    -13.82329805	    -11.59223245	     -8.79438490	      0.11683054	      0.00203908	     12.25254429	     -2.48723156	     -6.84761755	     -4.00799060	      3.62418063	     -0.36172801	     44.73591208	      4.19689034	     59.64150980	    127.18419913	     89.72386161	     37.39178428	      3.41880227	     61.15706906	    110.08954482	     96.04183638
      0.05000000	      7.25919780	     -2.86005741	      0.73008391	      1.23571918	      0.95751613	     -0.06842115	    -10.82954802	     -2.78712506	     -4.80636672	      0.30903837	      0.00539374	      8.43738259	     -2.70808266	     -6.98720656	    -13.34213116	    -11.32767602	     -9.84162684	      0.13319041	      0.00232461	     11.95194301	     -2.05432083	     -6.98720656	     -3.61674911	      3.08233893	     -0.85640293	     44.37990655	      5.27928733	     59.67683571	    126.36362044	     96.23800709	     37.41995620	      2.88779150	     61.41876931	    110.59673994	    103.15959415
      0.06666670	      7.21915302	     -2.81213648	      1.03922205	      1.23589667	      0.95765447	     -0.06920832	    -10.90203415	     -2.77936535	     -5.14546711	      0.33848822	      0.00590773	      8.32446607	     -2.62772212	     -7.02507012	    -13.19052328	    -11.28366457	     -9.94823694	      0.14482854	      0.00252773	     11.68341094	     -2.21094083	     -7.02507012	     -3.50351064	      2.86184994	     -1.20249587	     43.82205826	      5.37471713	     59.94506542	    125.73422768	     94.91824039	     37.53559107	      2.90678276	     61.51598299	    110.39365514	    101.42635304
      0.08333330	      7.04275887	     -2.83193484	      1.29363340	      1.23655254	      0.95757134	     -0.06980202	    -10.82221792	     -2.72467878	     -5.45190179	      0.36155771	      0.00631037	      8.18796928	     -2.57502895	     -7.20529248	    -12.96606134	    -11.31208776	     -9.95289691	      0.15484787	      0.00270261	     11.45983397	     -2.22463755	     -7.20529248	     -3.23305990	      2.84241834	     -1.46290481	     43.29318482	      5.45604920	     60.01678662	    125.20014942	     96.70919302	     37.49810160	      2.94144949	     61.35541989	    110.16060620	    102.95272782
      0.10000000	      6.82074168	     -2.84645506	      1.59503693	      1.23736140	      0.95751044	     -0.07041667	    -10.68506803	     -2.67696693	     -5.76414452	      0.36047227	      0.00629143	      8.16024424	     -2.68270250	     -7.22595876	    -12.69592149	    -11.32666524	     -9.95946505	      0.16300617	      0.00284499	     11.35673422	     -2.15396618	     -7.22595876	     -2.84673268	      2.88644908	     -1.72135008	     42.77406506	      5.55966434	     60.13109922	    125.16770883	     95.08085569	     37.44160335	      3.06034551	     61.23137070	    109.99376011	    101.30195243
      0.11666670	      6.60912107	     -2.90297947	      1.83412288	      1.23810646	      0.95499853	     -0.07056161	    -10.53484298	     -2.56594265	     -5.95566581	      0.34827809	      0.00607860	      8.18924168	     -2.91826210	     -7.33792864	    -12.43473308	    -11.39834765	    -10.18882635	      0.16645300	      0.00290515	     11.41515350	     -1.62028670	     -7.33792864	     -2.43863842	      2.92390866	     -1.96023642	     42.58705406	      5.81154823	     59.88359864	    125.15542649	     95.38872057	     37.49124609	      3.13894640	     61.00981062	    110.00868568	    102.11175453
      0.13333330	      6.51502098	     -2.91926738	      2.13781537	      1.23856248	      0.95759552	     -0.07132989	    -10.52458571	     -2.48646279	     -6.26209749	      0.32113176	      0.00560481	      8.34099486	     -3.05423246	     -7.38656495	    -12.26095914	    -11.42158414	    -10.08217714	      0.16488890	      0.00287785	     11.29272404	     -1.65613078	     -7.38656495	     -2.21970703	      2.95328819	     -2.10147899	     42.30615283	      5.74626379	     60.14832904	    125.24807933	     90.07107301	     37.46959412	      3.16150975	     61.47646509	    109.85253116	     96.06088122
      0.15000000	      6.21084626	     -2.97475993	      2.36750715	      1.23916045	      0.95505423	     -0.07198839	    -10.27151441	     -2.36513825	     -6.54961311	      0.30174306	      0.00526641	      8.48167389	     -3.15496097	     -7.43011574	    -11.88587240	    -11.46119431	    -10.32791718	      0.16164351	      0.00282121	     11.34507934	     -1.11588635	     -7.43011574	     -1.76759828	      3.00851321	     -2.08889899	     41.97186708	      5.67658451	     59.47052754	    125.15493567	     94.40230048	     37.43183876	      3.33973835	     61.25993895	    109.91265404	    101.29214692
      0.16666670	      6.13939547	     -3.00820378	      2.57663748	      1.23940494	      0.95498120	     -0.07230105	    -10.25502760	     -2.26620877	     -6.87305133	      0.28178836	      0.00491813	      8.70247063	     -3.11266158	     -7.44060608	    -11.74650131	    -11.47120983	    -10.31762742	      0.15679608	      0.00273661	     11.34077332	     -1.07091092	     -7.44060608	     -1.60064918	      3.08659852	     -2.18254782	     41.89600307	      5.60391379	     59.39309117	    125.33216314	     91.86489155	     37.42331601	      3.40602100	     61.39407839	    109.84653499	     98.26093111
      0.18333330	      6.02978457	     -3.08766169	      2.70245498	      1.23969072	      0.95500209	     -0.07258414	    -10.16515374	     -2.12550687	     -7.02713019	      0.26553518	      0.00463446	      8.83193551	     -3.21232102	     -7.44919648	    -11.58504560	    -11.51895517	    -10.70124866	      0.15140117	      0.00264245	     11.51928663	     -0.48015877	     -7.44919648	     -1.41787129	      3.17519726	     -1.98380659	     41.64364918	      5.22610198	     59.03275648	    125.51971837	     91.70742763	     37.47612929	      3.52021037	     61.89048067	    109.97883130	     98.31794849
      0.20000000	      5.90736653	     -3.07863284	      2.90051857	      1.23994199	      0.95497050	     -0.07283366	    -10.08907689	     -2.06718190	     -7.32251703	      0.25023647	      0.00436745	      8.99084625	     -3.17864314	     -7.45998620	    -11.38744209	    -11.49977303	    -10.69958977	      0.14596612	      0.00254759	     11.43748306	     -0.37365630	     -7.45998620	     -1.19967693	      3.15270177	     -1.96529521	     41.44949115	      5.06119192	     58.63888373	    125.56449454	     91.98530411	     37.42698929	      3.47515911	     62.20606009	    109.98921485	     98.82614730
      0.21666670	      5.87835911	     -3.13542864	      2.97348724	      1.24015125	      0.95497014	     -0.07296772	    -10.07111758	     -1.95732457	     -7.25950759	      0.24269307	      0.00423579	      9.03001444	     -3.52335175	     -7.46141487	    -11.31008395	    -11.52489367	    -10.71312995	      0.14199028	      0.00247820	     11.55769663	     -0.38930272	     -7.46141487	     -1.14325391	      3.23066984	     -2.01937442	     41.39227059	      4.96826380	     58.42231995	    125.69531112	     91.45335369	     37.30512061	      3.50074426	     62.16798788	    109.89869887	     98.28728055
